HIERARCHY
ROOT Hips
{
  OFFSET 57.8838 95.319 338.509
  CHANNELS 6 Xposition Yposition Zposition Zrotation Xrotation Yrotation
  JOINT LeftUpLeg
  {
    OFFSET 8.64259 1.95398 -2.38835
    CHANNELS 3 Zrotation Xrotation Yrotation
    JOINT LeftLeg
    {
      OFFSET 43.7702 0 0
      CHANNELS 3 Zrotation Xrotation Yrotation
      JOINT LeftFoot
      {
        OFFSET 40.6238 0 0
        CHANNELS 3 Zrotation Xrotation Yrotation
        JOINT LeftToeBase
        {
          OFFSET 12.7242 0 0
          CHANNELS 3 Zrotation Xrotation Yrotation
          End Site
          {
            OFFSET 0 0 0
          }
        }
      }
    }
  }
  JOINT RightUpLeg
  {
    OFFSET -8.2249 1.95398 -2.59336
    CHANNELS 3 Zrotation Xrotation Yrotation
    JOINT RightLeg
    {
      OFFSET 43.5653 0 0
      CHANNELS 3 Zrotation Xrotation Yrotation
      JOINT RightFoot
      {
        OFFSET 40.6238 0 0
        CHANNELS 3 Zrotation Xrotation Yrotation
        JOINT RightToeBase
        {
          OFFSET 12.7242 0 0
          CHANNELS 3 Zrotation Xrotation Yrotation
          End Site
          {
            OFFSET 0 0 0
          }
        }
      }
    }
  }
  JOINT Spine
  {
    OFFSET 0.165834 0.87714 6.61349
    CHANNELS 3 Zrotation Xrotation Yrotation
    JOINT Spine1
    {
      OFFSET 7.38963 1.71661e-005 0
      CHANNELS 3 Zrotation Xrotation Yrotation
      JOINT Spine2
      {
        OFFSET 11.9445 1.14441e-005 0
        CHANNELS 3 Zrotation Xrotation Yrotation
        JOINT Spine3
        {
          OFFSET 14.7254 4.19617e-005 0
          CHANNELS 3 Zrotation Xrotation Yrotation
          JOINT Spine4
          {
            OFFSET 10.9679 0 0
            CHANNELS 3 Zrotation Xrotation Yrotation
            JOINT RightShoulder
            {
              OFFSET 2.46616 -1.6653 3.69651
              CHANNELS 3 Zrotation Xrotation Yrotation
              JOINT RightArm
              {
                OFFSET 13.0012 0 0
                CHANNELS 3 Zrotation Xrotation Yrotation
                JOINT RightForeArm
                {
                  OFFSET 28.7848 1.62311e-005 0
                  CHANNELS 3 Zrotation Xrotation Yrotation
                  JOINT RightHand
                  {
                    OFFSET 26.5688 1.62095e-005 0
                    CHANNELS 3 Zrotation Xrotation Yrotation
                    End Site
                    {
                      OFFSET 0 0 0
                    }
                  }
                }
              }
            }
            JOINT LeftShoulder
            {
              OFFSET 2.38034 -1.29275 -3.7523
              CHANNELS 3 Zrotation Xrotation Yrotation
              JOINT LeftArm
              {
                OFFSET 16.3182 6.07031e-005 0
                CHANNELS 3 Zrotation Xrotation Yrotation
                JOINT LeftForeArm
                {
                  OFFSET 27.0901 0 0
                  CHANNELS 3 Zrotation Xrotation Yrotation
                  JOINT LeftHand
                  {
                    OFFSET 24.5451 1.51738e-005 0
                    CHANNELS 3 Zrotation Xrotation Yrotation
                    End Site
                    {
                      OFFSET 0 0 0
                    }
                  }
                }
              }
            }
            JOINT Neck
            {
              OFFSET 5.0226 -0.0266342 0
              CHANNELS 3 Zrotation Xrotation Yrotation
              JOINT Head
              {
                OFFSET 6.69364 2.86102e-005 0
                CHANNELS 3 Zrotation Xrotation Yrotation
                End Site
                {
                  OFFSET 0 0 0
                }
              }
            }
          }
        }
      }
    }
  }
}
MOTION
Frames:	14
Frame Time:	0.0416667
-4.24001 34.9469 -8.59181 168.006 -69.1305 165.767 -130.457 71.2739 50.6987 -154.544 5.20301 4.58472 68.557 9.5033 6.9515 66.5135 18.449 8.90252 157.022 72.2093 84.8965 -154.194 -19.5894 -1.48486 71.8052 -23.9264 -13.0115 48.8624 -30.1032 -8.05179 0.320334 12.6677 -90.5378 1.5392 0.433999 -1.03591 -10.1321 0.387989 -1.05401 -32.6654 0.725255 -0.8576 -12.6528 0.725255 -0.857603 95.7289 -32.7357 -94.6894 2.05705 -36.3682 -55.912 -51.1252 -0.0877784 -66.0057 -7.77623 -1.07717 11.5227 -85.5556 -30.7175 82.0188 -34.1239 12.5654 -61.0744 49.0802 39.1684 -69.0259 -12.4076 0.940791 -16.078 31.8224 -0.756968 15.3526 0.357107 -7.29773 -11.228 
-4.29263 34.9648 -8.6766 167.927 -69.0792 165.819 -130.484 71.3156 50.7723 -154.464 5.17514 4.59824 68.4706 9.69004 7.17245 66.3485 18.4925 9.28068 155.849 72.2644 86.0269 -154.097 -19.7652 -1.48777 71.4092 -23.7696 -13.5284 49.021 -30.1711 -7.73006 0.33585 12.7134 -90.5476 1.44771 0.46163 -1.05331 -10.2236 0.414835 -1.07261 -32.7569 0.756838 -0.865906 -12.7443 0.756849 -0.865895 96.0372 -32.5599 -94.1203 -0.145779 -38.3622 -57.2533 -55.7658 -1.4306 -65.0835 -8.50784 -1.28946 13.0735 -85.4334 -30.2463 82.1491 -33.6491 12.6849 -61.2405 49.0391 38.361 -69.4407 -13.359 0.955968 -15.2334 30.9423 -1.07596 15.137 1.28776 -7.47322 -10.9644 
-4.38707 34.8308 -8.81106 167.451 -68.9462 165.364 -130.72 71.3506 50.7588 -154.48 4.51608 4.58137 69.0513 10.167 6.71147 66.3527 18.4839 9.24939 154.615 71.9172 87.1329 -154.228 -19.9494 -1.47268 71.6216 -24.5323 -14.2803 48.6258 -29.8329 -8.20421 0.305181 12.758 -90.5559 1.35843 0.397641 -1.07083 -10.3129 0.350134 -1.0873 -32.8459 0.701077 -0.901841 -12.8332 0.701073 -0.901841 96.1957 -31.6649 -93.9759 -0.417253 -39.1815 -57.4095 -58.4288 -1.45087 -65.1837 -7.5213 -1.13586 13.1375 -85.089 -29.3135 82.615 -33.7435 12.864 -61.3937 49.3887 37.6407 -69.8954 -14.5563 1.0998 -15.4741 29.7843 -1.03608 15.3689 2.34524 -7.4777 -11.0739 
-4.40132 34.5981 -8.94218 167.031 -68.386 164.879 -131.035 71.0853 50.7583 -154.64 4.18837 4.55015 69.2892 10.2585 6.46728 66.3326 18.5901 9.5898 155.553 71.9688 85.9991 -154.443 -20.5664 -1.42608 70.9179 -24.0583 -14.8427 49.1715 -30.42 -7.78772 0.272843 12.845 -90.5568 1.18394 0.333534 -1.07348 -10.4874 0.285969 -1.08712 -33.0201 0.640725 -0.923633 -13.0074 0.640722 -0.923626 96.765 -30.6618 -93.0167 -0.530612 -39.9836 -58.5226 -59.3353 -0.925452 -65.3373 -7.77833 -1.16431 12.9329 -84.5435 -28.3588 83.4901 -33.8379 13.5695 -61.5231 49.8447 36.2023 -70.6623 -16.0582 1.21104 -15.1841 28.3578 -1.60587 14.5383 3.80655 -7.57305 -9.70954 
-4.35625 34.3725 -9.17329 164.018 -67.9338 161.833 -130.325 70.9386 48.5765 -154.7 4.22996 4.47872 69.2251 10.9244 7.59037 66.2386 18.5254 9.54655 155.295 71.7062 85.3117 -154.571 -19.9838 -1.44415 71.6232 -24.8307 -14.7036 49.3642 -30.7429 -7.86944 0.155964 12.899 -90.6142 1.0748 0.0790545 -1.19324 -10.5967 0.0264718 -1.19557 -33.1279 0.433988 -1.11434 -13.1152 0.434004 -1.11433 97.0974 -30.0563 -92.4462 -0.69381 -40.6655 -59.1422 -61.4883 -0.401785 -65.1967 -8.68259 -1.25484 12.1737 -84.2189 -27.3908 83.9416 -34.8197 14.0392 -61.2484 53.3576 34.1656 -73.2913 -18.4385 1.51674 -15.7168 26.5272 -1.61628 16.0485 5.30137 -8.12913 -11.1489 
-4.57604 34.5336 -9.45162 166.965 -68.2426 164.528 -129.545 70.5985 49.1363 -154.394 4.17162 4.70866 69.6377 11.2204 7.65027 65.5714 18.0516 9.17776 155.672 72.0815 87.0353 -154.479 -16.0709 -1.63222 74.2887 -25.171 -9.70646 48.5946 -29.4668 -7.56485 0.272039 12.9311 -90.5295 1.0119 0.343013 -1.01904 -10.6594 0.297834 -1.03316 -33.1924 0.633406 -0.868858 -13.1798 0.633411 -0.868859 97.1422 -30.0412 -92.3567 -0.533663 -41.3268 -59.1296 -62.7391 1.02215 -65.9092 -6.97245 -1.01921 12.773 -83.9365 -26.5243 84.3406 -35.6243 14.356 -60.486 52.6398 31.9081 -73.8185 -18.1041 1.36005 -14.836 25.2514 -1.85212 16.2765 5.65602 -8.3518 -11.9308 
-4.64381 34.7608 -9.61715 165.956 -68.6473 163.578 -129.377 71.3601 48.6589 -154.034 4.61062 4.73159 69.3079 10.9591 7.3707 65.5481 17.7251 8.23723 155.283 72.2296 87.702 -154.278 -14.7793 -1.79016 75.7627 -25.2173 -7.4023 48.4839 -29.109 -7.16351 0.276706 12.915 -90.5499 1.04403 0.34449 -1.05868 -10.6273 0.297564 -1.07283 -33.1601 0.646726 -0.906231 -13.1475 0.64673 -0.906233 97.405 -29.3141 -91.9367 0.19812 -41.6232 -59.4077 -63.5296 2.36058 -66.8296 -5.60375 -0.865544 13.9468 -83.9509 -26.5669 84.3198 -35.9183 14.0234 -59.8625 53.0011 29.6833 -74.9697 -19.2938 1.4374 -14.6189 24.3884 -2.12154 16.441 6.53454 -8.6531 -12.1768 
-4.7005 34.971 -9.74866 166.381 -68.8813 164.092 -128.425 71.5186 48.2441 -153.696 4.44016 4.87359 69.1699 10.7748 7.25231 65.8958 17.8159 7.97522 156.327 72.5308 87.1894 -154.164 -13.8364 -1.86182 77.1063 -25.0863 -4.472 48.0733 -28.2524 -6.61403 0.290325 12.9327 -90.5447 1.00872 0.373784 -1.04733 -10.6626 0.327326 -1.06277 -33.1956 0.671242 -0.886596 -13.1829 0.671253 -0.886586 97.525 -29.3607 -91.6816 -0.569852 -41.8381 -60.3152 -62.9404 2.89024 -66.6625 -7.49297 -1.13305 13.1628 -83.8769 -26.9584 84.5493 -35.4532 13.6169 -59.0296 52.7883 27.5351 -76.2263 -19.3397 1.25289 -13.3582 24.5009 -2.24314 14.5123 7.28764 -7.97068 -9.60118 
-4.77907 34.9211 -9.81195 166.562 -69.1047 164.286 -127.334 71.454 47.578 -153.763 4.819 4.93584 69.2457 11.085 8.069 65.9078 17.8337 8.01006 155.212 72.8931 88.7508 -153.937 -15.7726 -1.74339 74.6388 -24.3895 -8.00134 48.6504 -29.2804 -7.02285 0.305793 12.9297 -90.5247 1.01511 0.412148 -1.0071 -10.6562 0.367431 -1.02427 -33.1895 0.695764 -0.836691 -13.1769 0.695759 -0.836697 97.5437 -29.1356 -91.6785 -0.272755 -41.8673 -60.1538 -61.5835 3.56047 -66.9812 -9.624 -1.3922 12.0809 -83.8975 -27.4035 84.595 -34.8466 13.3762 -58.7592 51.5309 26.3499 -76.0458 -19.6025 1.21692 -12.9889 25.4817 -1.92745 14.9079 6.80694 -7.94746 -10.2901 
-4.88547 34.9752 -9.87103 167.909 -69.386 165.558 -127.281 71.2595 48.3166 -153.643 5.04304 5.01009 69.5364 11.3206 8.36836 66.1208 17.9429 8.01084 152.588 72.772 92.1775 -153.63 -15.6032 -1.81118 73.6395 -24.4791 -9.90155 49.0397 -29.8447 -7.02972 0.39294 12.9158 -90.5106 1.04339 0.591265 -0.97362 -10.6278 0.54784 -0.998706 -33.1621 0.85653 -0.750928 -13.1495 0.856527 -0.750926 97.4847 -29.6068 -91.7261 -1.00284 -42.2569 -59.7996 -64.1381 2.75522 -66.7955 -8.26532 -1.30807 14.0692 -83.9694 -27.5175 84.4708 -36.2179 12.9061 -58.5054 54.6809 26.5629 -78.1855 -21.6537 1.30043 -12.5443 26.664 -1.92307 14.7808 5.88865 -7.94648 -10.0395 
-4.8308 35.7472 -10.0153 164.392 -69.9598 162.114 -127.727 71.5736 47.4295 -152.506 5.32126 5.12921 68.9967 10.979 7.97109 66.2307 18.0141 8.05519 149.824 72.4281 93.9012 -152.321 -16.8516 -1.92033 72.1422 -24.193 -12.6903 49.4161 -30.5808 -7.40939 0.332081 12.8616 -90.5761 1.15153 0.444554 -1.10711 -10.5198 0.395392 -1.12561 -33.0528 0.756718 -0.922352 -13.0401 0.756713 -0.922341 97.4047 -30.8155 -91.7016 -2.41097 -41.7626 -60.3275 -64.2299 2.98013 -66.5225 -5.61926 -0.84881 13.4622 -84.1511 -28.6138 84.3242 -35.5097 13.2689 -59.1195 55.3099 27.1697 -78.0411 -22.6825 1.49885 -13.222 28.9463 -1.42994 14.5966 4.42874 -7.49771 -8.79812 
-4.97757 37.8874 -10.3111 161.964 -72.2715 160.05 -128.089 72.1794 47.5012 -149.656 5.50008 5.58437 68.4989 10.4885 7.12026 66.0607 18.0715 8.48392 145.725 72.4399 98.404 -149.399 -17.9991 -2.20789 71.0174 -23.2636 -13.2767 49.2442 -30.2371 -7.22298 0.315426 12.7028 -90.5953 1.46868 0.402552 -1.14832 -10.2027 0.351631 -1.16493 -32.7353 0.729043 -0.97427 -12.7226 0.729046 -0.974284 96.7835 -33.4289 -92.5162 -5.27739 -40.6212 -61.2964 -62.7995 0.63053 -65.9457 -7.6131 -1.24417 14.6243 -84.6882 -31.5844 83.8572 -33.9379 12.8874 -59.594 52.4406 28.9977 -75.6857 -21.7185 1.54139 -13.9224 33.3846 -0.385917 15.0951 0.861131 -7.02416 -8.68326 
-5.03402 41.0482 -10.6683 156.735 -74.2774 154.863 -131.546 71.6295 50.0439 -145.21 5.05635 6.08541 68.5166 10.3148 5.47275 65.4027 17.5365 7.8899 143.228 72.0071 100.171 -145.314 -16.6401 -2.72862 71.833 -22.1991 -9.95689 48.8114 -29.3597 -6.7133 0.263843 12.5457 -90.5727 1.78265 0.306759 -1.10886 -9.88875 0.25766 -1.12129 -32.4211 0.625817 -0.965427 -12.4085 0.625823 -0.965424 95.4622 -37.2949 -94.3476 -8.17335 -38.1528 -61.2031 -57.5555 -2.54333 -64.0418 -11.0647 -1.80599 14.1937 -85.8013 -34.7554 82.4194 -33.446 11.7597 -60.5715 51.3905 34.3941 -72.8005 -19.0965 1.34816 -14.1593 36.8116 -0.146404 14.6186 -1.54073 -6.87208 -8.10748 
-5.15824 44.6335 -10.8496 150.268 -76.4411 148.399 -135.75 70.8059 53.9393 -140.161 4.99081 6.47786 68.4992 10.0426 3.81095 65.1439 17.1431 7.08766 141.193 71.009 101.745 -140.485 -16.0777 -3.13783 72.1869 -21.2035 -7.92649 47.9926 -28.0846 -6.504 0.120822 12.3387 -90.5062 2.19565 0.0451196 -0.987377 -9.47567 0.00161894 -0.988418 -32.0081 0.339763 -0.928189 -11.9954 0.339761 -0.928185 94.8449 -38.6827 -95.2085 -8.43158 -35.745 -63.198 -51.5451 -8.90643 -60.2421 -10.9222 -1.69831 13.2277 -87.104 -37.9765 80.7911 -33.1194 9.75017 -60.7878 47.5506 41.9776 -66.2754 -15.498 1.16302 -15.2065 42.3284 0.985184 14.0537 -5.60153 -6.02039 -6.8751 
